M48
INCH,TZ
FMAT,2
ICI,OFF
T01C.01181
T02C.03543
%
T02
G05
X54596Y33832
X54596Y34832
X54596Y35832
X54596Y36832
X54596Y37832
X54596Y38832
X54596Y39832
X54596Y40832
X54596Y41832
X54596Y42832
X54596Y43832
X54596Y44832
X60505Y44832
X60505Y43832
X60505Y42832
X60505Y41832
X60505Y40832
X60505Y39832
X60505Y38832
X60505Y37832
X60505Y36832
X60505Y35832
X60505Y34832
X60505Y33832
T01
X55764Y37519
X59034Y39821
X59111Y39410
X59074Y38854
X55287Y37856
X55962Y42160
X55772Y40326
M30
