*
%LPD*%
%LNSTEVAL-MKI169V1.GTL*%
%FSLAX24Y24*%
%MOIN*%
%AD*%
%ADD10R,0.0315X0.05118*%
%ADD11R,0.05118X0.0315*%
%ADD12R,0.02362X0.01772*%
%ADD13R,0.01772X0.02362*%
%ADD14C,0.01*%
%ADD15C,0.05906*%
%ADD16C,0.05906*%
%ADD17R,0.05906X0.05906*%
%ADD19C,0.024*%
G54D10*
%SRX1Y1I0.0J0.0*%
G1X56769Y37993D3*
G1X56099Y37993D3*
G1X58879Y42789D3*
G1X58873Y43631D3*
G1X56926Y44472D3*
G1X58199Y44462D3*
G1X56257Y44472D3*
G1X58868Y44462D3*
G1X58210Y42789D3*
G1X56542Y43030D3*
G1X57212Y43030D3*
G1X58204Y43631D3*
G54D11*
G1X56130Y36547D3*
G1X56130Y35878D3*
G1X57465Y36571D3*
G1X57465Y37240D3*
G1X58751Y36516D3*
G1X58751Y35847D3*
G54D12*
G1X56870Y40333D3*
G1X56870Y40077D3*
G1X56870Y39821D3*
G1X58228Y40077D3*
G1X58228Y39821D3*
G1X56870Y40589D3*
G1X58228Y40589D3*
G1X58228Y40333D3*
G54D13*
G1X57165Y40884D3*
G1X57421Y40884D3*
G1X57677Y40884D3*
G1X57933Y40884D3*
G1X57933Y39526D3*
G1X57677Y39526D3*
G1X57421Y39526D3*
G1X57165Y39526D3*
G1X58228Y40333D2*
G54D14*
G1X59095Y40333D1*
G1X58210Y42688D2*
G1X58210Y42789D1*
G1X58228Y40589D2*
G1X58963Y40589D1*
G1X57212Y42901D2*
G1X57212Y43030D1*
G1X60048Y40375D2*
G1X60505Y40832D1*
G1X57421Y38571D2*
G1X57421Y39526D1*
G1X60031Y41358D2*
G1X60505Y41832D1*
G1X57677Y38639D2*
G1X57677Y39526D1*
G1X57165Y38739D2*
G1X57165Y39526D1*
G1X56776Y38350D2*
G1X57165Y38739D1*
G1X56769Y38342D2*
G1X56776Y38350D1*
G1X56388Y38738D2*
G1X56776Y38350D1*
G1X56769Y37993D2*
G1X56769Y38342D1*
G1X54596Y43832D2*
G1X55112Y43315D1*
G1X58868Y44462D2*
G1X58868Y44554D1*
G1X55987Y44832D2*
G1X56257Y44563D1*
G1X56257Y44583D1*
G1X56257Y44472D2*
G1X56257Y44563D1*
G1X56257Y44372D2*
G1X56257Y44472D1*
G1X54596Y44832D2*
G1X55987Y44832D1*
G1X55859Y40077D2*
G1X56870Y40077D1*
G1X55775Y39883D2*
G1X55837Y39821D1*
G1X56870Y39821D1*
G1X55784Y39821D2*
G1X55837Y39821D1*
G1X58228Y39821D2*
G1X59030Y39821D1*
G1X59657Y41985D2*
G1X60505Y42832D1*
G1X57933Y38714D2*
G1X57933Y39526D1*
G1X58879Y42699D2*
G1X58879Y42789D1*
G1X59070Y38850D2*
G1X59447Y39228D1*
G1X58228Y40077D2*
G1X59136Y40077D1*
G1X59101Y39410D2*
G1X59291Y39599D1*
G1X60405Y43932D2*
G1X60505Y43832D1*
G1X60505Y43593D2*
G1X60505Y43832D1*
G1X58803Y43701D2*
G1X58933Y43832D1*
G1X58873Y43631D2*
G1X58873Y43720D1*
G1X58199Y44359D2*
G1X58199Y44462D1*
G1X57933Y40884D2*
G1X57933Y42053D1*
G1X57677Y40884D2*
G1X57677Y42150D1*
G1X56926Y44387D2*
G1X56926Y44472D1*
G1X56926Y44379D2*
G1X56926Y44387D1*
G1X56926Y44369D2*
G1X56926Y44379D1*
G1X56926Y44387D2*
G1X57126Y44187D1*
G1X56757Y44209D2*
G1X56926Y44379D1*
G1X57165Y42068D2*
G1X57248Y42150D1*
G1X58751Y35847D2*
G1X58879Y35847D1*
G1X58654Y35847D2*
G1X58751Y35847D1*
G1X59548Y34789D2*
G1X60505Y33832D1*
G1X57421Y40884D2*
G1X57421Y42150D1*
G1X57165Y40884D2*
G1X57165Y42068D1*
G1X56542Y43030D2*
G1X56542Y43122D1*
G1X56542Y42939D2*
G1X56542Y43030D1*
G1X57677Y42150D2*
G1X57836Y42150D1*
G1X57421Y42150D2*
G1X57677Y42150D1*
G1X57248Y42150D2*
G1X57421Y42150D1*
G1X55966Y42150D2*
G1X57248Y42150D1*
G1X55964Y42150D2*
G1X55966Y42150D1*
G1X55956Y42150D2*
G1X55964Y42150D1*
G1X55820Y40589D2*
G1X56870Y40589D1*
G1X55964Y42159D2*
G1X55964Y42360D1*
G1X55960Y42156D2*
G1X55966Y42150D1*
G1X56130Y35878D2*
G1X56229Y35878D1*
G1X56029Y35878D2*
G1X56130Y35878D1*
G1X55432Y37993D2*
G1X56099Y37993D1*
G1X55291Y37852D2*
G1X55432Y37993D1*
G1X55291Y37852D2*
G1X55291Y37857D1*
G1X55291Y36616D2*
G1X55291Y37852D1*
G1X58306Y36516D2*
G1X58751Y36516D1*
G1X57465Y37240D2*
G1X57581Y37240D1*
G1X57316Y36720D2*
G1X57465Y36571D1*
G1X56130Y36547D2*
G1X56230Y36547D1*
G1X56028Y36547D2*
G1X56130Y36547D1*
G1X55767Y40333D2*
G1X56870Y40333D1*
G1X55767Y36808D2*
G1X55767Y37519D1*
G1X59291Y39599D2*
G1X59291Y39923D1*
G1X59136Y40077D2*
G1X59291Y39923D1*
G1X55112Y39134D2*
G1X55508Y38738D1*
G1X55112Y39134D2*
G1X55112Y43315D1*
G1X55508Y38738D2*
G1X56388Y38738D1*
G1X59447Y39228D2*
G1X59447Y39475D1*
G1X59448Y39475D2*
G1X59457Y42121D1*
G1X59857Y41184D2*
G1X60031Y41358D1*
G1X59837Y41165D2*
G1X59857Y41184D1*
G1X59517Y38196D2*
G1X60048Y38726D1*
G1X60048Y40375D1*
G1X58879Y42699D2*
G1X59457Y42121D1*
G1X59222Y40460D2*
G1X59222Y41675D1*
G1X58210Y42688D2*
G1X59222Y41675D1*
G1X57325Y42788D2*
G1X57550Y42788D1*
G1X57212Y42901D2*
G1X57325Y42788D1*
G1X57550Y42788D2*
G1X59022Y41315D1*
G1X59022Y40648D2*
G1X59022Y41315D1*
G1X58963Y40589D2*
G1X59022Y40648D1*
G1X59086Y43932D2*
G1X60405Y43932D1*
G1X58873Y43720D2*
G1X59086Y43932D1*
G1X59095Y40333D2*
G1X59222Y40460D1*
G1X57212Y43126D2*
G1X57375Y43290D1*
G1X57913Y43290D1*
G1X58051Y43428D1*
G1X56542Y43122D2*
G1X56757Y43336D1*
G1X56757Y44209D1*
G1X55964Y42360D2*
G1X56542Y42939D1*
G1X55439Y40165D2*
G1X55439Y43555D1*
G1X56257Y44372D1*
G1X55439Y40165D2*
G1X55784Y39821D1*
G1X57126Y44187D2*
G1X58028Y44187D1*
G1X58199Y44359D1*
G1X58323Y45099D2*
G1X58868Y44554D1*
G1X56773Y45099D2*
G1X58323Y45099D1*
G1X56257Y44583D2*
G1X56773Y45099D1*
G1X55775Y39993D2*
G1X55859Y40077D1*
G1X55775Y39883D2*
G1X55775Y39993D1*
G1X57836Y42150D2*
G1X57933Y42053D1*
G1X55696Y40712D2*
G1X55820Y40589D1*
G1X55696Y40712D2*
G1X55696Y41890D1*
G1X55956Y42150D1*
G1X57421Y38571D2*
G1X57797Y38196D1*
G1X59517Y38196D1*
G1X57677Y38639D2*
G1X57915Y38401D1*
G1X59325Y38401D1*
G1X59837Y38913D1*
G1X59837Y41165D1*
G1X57933Y38714D2*
G1X58038Y38609D1*
G1X59248Y38609D2*
G1X59657Y39018D1*
G1X59657Y41985D1*
G1X58038Y38609D2*
G1X59248Y38609D1*
G1X55767Y36808D2*
G1X56028Y36547D1*
G1X56230Y36547D2*
G1X56403Y36720D1*
G1X57316Y36720D1*
G1X57581Y37240D2*
G1X58306Y36516D1*
G1X56229Y35878D2*
G1X56496Y36144D1*
G1X58357Y36144D1*
G1X58654Y35847D1*
G1X58879Y35847D2*
G1X59548Y35178D1*
G1X59548Y34789D2*
G1X59548Y35178D1*
G1X55291Y36616D2*
G1X56029Y35878D1*
G54D15*
G1X60505Y33832D3*
G1X60505Y43832D3*
G1X60505Y44832D3*
G1X60505Y42832D3*
G1X60505Y41832D3*
G1X60505Y39832D3*
G1X60505Y37832D3*
G1X60505Y36832D3*
G1X60505Y35832D3*
G1X60505Y34832D3*
G1X60505Y40832D3*
G1X60505Y38832D3*
G54D16*
G1X54596Y33832D3*
G1X54596Y34832D3*
G1X54596Y35832D3*
G1X54596Y36832D3*
G1X54596Y38832D3*
G1X54596Y39832D3*
G1X54596Y40832D3*
G1X54596Y41832D3*
G1X54596Y42832D3*
G1X54596Y43832D3*
G1X54596Y37832D3*
G54D17*
G1X54596Y44832D3*
G54D19*
G1X55767Y37519D3*
G1X55291Y37852D3*
G1X55964Y42159D3*
G1X59036Y39821D3*
G1X59113Y39410D3*
G1X59077Y38853D3*
G1X55775Y40326D3*
M2*
